<svg width="38" height="29" fill="none" xmlns="http://www.w3.org/2000/svg"><path d="M0 .032c0 .025.682 1.073 1.52 2.335L3.034 4.66l4.997.025 4.997.024.46.213c.56.262.987.68 1.283 1.245.197.369.23.516.23 1.163s-.033.795-.23 1.163a2.732 2.732 0 01-1.282 1.245l-.46.213-3.223.041-3.221.041 6.016 9.108c3.312 5.012 6.033 9.116 6.057 9.116.033-.008 17.565-26.53 18.527-28.02L37.332 0l-3.19.016-3.18.025-6.099 9.239c-3.353 5.086-6.131 9.271-6.173 9.312-.04.033-.723-.917-1.553-2.187-.814-1.237-1.488-2.269-1.496-2.301-.016-.033.206-.18.493-.32 2.343-1.22 3.756-3.628 3.756-6.413 0-3.35-2.21-6.192-5.548-7.142-.657-.18-.674-.18-7.495-.213C3.082.008 0 .008 0 .032z" fill="#012DE7"/></svg>