<svg width="158" height="39" viewBox="0 0 158 39" fill="none" xmlns="http://www.w3.org/2000/svg">
<path d="M60.033 29.553L56.991 24.207H54.821V29.553H51.421V13.894H57.752C58.78 13.894 59.713 14.116 60.548 14.554C61.383 14.994 62.035 15.61 62.506 16.401C62.975 17.191 63.21 18.087 63.21 19.086C63.21 20.085 62.956 20.987 62.449 21.792C61.942 22.597 61.249 23.209 60.369 23.627L63.836 29.554H60.033V29.553ZM54.821 17.027V21.076H57.528C58.214 21.076 58.761 20.889 59.172 20.516C59.583 20.143 59.787 19.66 59.787 19.062C59.787 18.66 59.697 18.305 59.518 18C59.339 17.694 59.079 17.455 58.736 17.284C58.392 17.112 57.99 17.026 57.528 17.026H54.821V17.027Z" fill="#6C7074"/>
<path d="M77.416 23.47C77.416 23.783 77.393 24.103 77.349 24.432H68.221C68.356 25.252 68.68 25.882 69.196 26.321C69.71 26.762 70.369 26.981 71.175 26.981C71.727 26.981 72.227 26.858 72.674 26.612C73.121 26.367 73.472 26.027 73.726 25.595H77.17C76.723 26.908 75.962 27.951 74.889 28.726C73.816 29.502 72.576 29.89 71.175 29.89C69.386 29.89 67.894 29.278 66.701 28.056C65.508 26.832 64.911 25.318 64.911 23.514C64.911 22.798 65.012 22.112 65.213 21.456C65.414 20.8 65.705 20.211 66.085 19.687C66.466 19.166 66.909 18.715 67.417 18.334C67.924 17.954 68.498 17.659 69.14 17.45C69.781 17.242 70.459 17.137 71.175 17.137C72.383 17.137 73.468 17.42 74.43 17.987C75.393 18.554 76.13 19.322 76.645 20.292C77.158 21.262 77.416 22.321 77.416 23.47ZM71.174 19.913C70.444 19.913 69.828 20.114 69.328 20.517C68.829 20.92 68.488 21.479 68.31 22.195H74.149C74 21.704 73.783 21.29 73.501 20.954C73.217 20.619 72.878 20.36 72.482 20.183C72.087 20.002 71.651 19.913 71.174 19.913Z" fill="#6C7074"/>
<path d="M86.633 17.1831C88.005 17.1831 89.09 17.6421 89.888 18.5591C90.686 19.4771 91.085 20.7041 91.085 22.2391V29.5541H87.818V22.7531C87.818 20.9491 87.117 20.0461 85.715 20.0461C85.163 20.0461 84.682 20.1731 84.272 20.4271C83.861 20.6811 83.548 21.0451 83.333 21.5231C83.116 22.0001 83.009 22.5601 83.009 23.2021V29.5551H79.742V17.4751H81.979L82.627 18.9741C82.851 18.6911 83.108 18.4411 83.399 18.2251C83.69 18.0071 84.006 17.8221 84.349 17.6641C84.692 17.5081 85.054 17.3901 85.434 17.3071C85.816 17.2251 86.215 17.1831 86.633 17.1831Z" fill="#6C7074"/>
<path d="M99.898 26.646H101.374V29.553H99.07C98.19 29.553 97.425 29.382 96.777 29.04C96.128 28.697 95.632 28.201 95.289 27.551C94.946 26.904 94.775 26.131 94.775 25.237V20.091H92.583V19.399L97.37 14.321H97.974V17.475H101.307V20.091H98.04V24.813C98.04 25.395 98.2 25.845 98.521 26.167C98.843 26.486 99.302 26.646 99.898 26.646Z" fill="#6C7074"/>
<path d="M113.365 17.4521H115.803V29.5331H113.231L112.962 28.4592C111.858 29.4142 110.553 29.8902 109.047 29.8902C107.228 29.8902 105.717 29.2841 104.517 28.0671C103.317 26.8521 102.716 25.3282 102.716 23.4932C102.716 21.6742 103.317 20.1601 104.517 18.9521C105.717 17.7441 107.228 17.1392 109.047 17.1392C110.583 17.1392 111.902 17.6321 113.007 18.6161L113.365 17.4521ZM106.956 25.8642C107.575 26.4902 108.358 26.8022 109.305 26.8022C110.252 26.8022 111.039 26.4892 111.665 25.8642C112.292 25.2372 112.604 24.4472 112.604 23.4922C112.604 22.5382 112.291 21.7482 111.665 21.1212C111.039 20.4952 110.256 20.1812 109.316 20.1812C108.69 20.1812 108.127 20.3271 107.627 20.6191C107.127 20.9111 106.736 21.3041 106.453 21.8041C106.169 22.3041 106.028 22.8672 106.028 23.4932C106.028 24.4472 106.337 25.2372 106.956 25.8642Z" fill="#6C7074"/>
<path d="M126.854 17.4741H130.256L125.445 29.5541H122.426L117.526 17.4741H120.994L123.969 25.5731L126.854 17.4741Z" fill="#6C7074"/>
<path d="M143.275 23.47C143.275 23.783 143.253 24.103 143.208 24.432H134.081C134.215 25.252 134.539 25.882 135.054 26.321C135.569 26.762 136.229 26.981 137.034 26.981C137.586 26.981 138.085 26.858 138.532 26.612C138.98 26.367 139.331 26.027 139.584 25.595H143.029C142.582 26.908 141.821 27.951 140.748 28.726C139.674 29.502 138.435 29.89 137.034 29.89C135.244 29.89 133.753 29.278 132.559 28.056C131.366 26.832 130.769 25.318 130.769 23.514C130.769 22.798 130.871 22.112 131.072 21.456C131.273 20.8 131.564 20.211 131.944 19.687C132.325 19.166 132.768 18.715 133.275 18.334C133.782 17.954 134.356 17.659 134.998 17.45C135.639 17.242 136.318 17.137 137.034 17.137C138.242 17.137 139.327 17.42 140.289 17.987C141.251 18.554 141.989 19.322 142.504 20.292C143.019 21.262 143.275 22.321 143.275 23.47ZM137.034 19.913C136.303 19.913 135.687 20.114 135.188 20.517C134.688 20.92 134.349 21.479 134.169 22.195H140.009C139.86 21.704 139.643 21.29 139.36 20.954C139.077 20.619 138.737 20.36 138.342 20.183C137.947 20.002 137.511 19.913 137.034 19.913Z" fill="#6C7074"/>
<path d="M154.483 13.1121H157.75V29.554H155.334L154.953 28.5481C153.88 29.4561 152.619 29.9111 151.173 29.9111C149.965 29.9111 148.876 29.6361 147.906 29.0831C146.936 28.5321 146.179 27.7691 145.635 26.7901C145.09 25.8141 144.82 24.7221 144.82 23.5141C144.82 22.3061 145.091 21.2181 145.635 20.2471C146.18 19.2781 146.937 18.5181 147.906 17.9661C148.876 17.4131 149.965 17.1391 151.173 17.1391C152.396 17.1391 153.499 17.4671 154.484 18.1221V13.1121H154.483ZM149.069 25.886C149.696 26.512 150.482 26.8241 151.429 26.8241C152.376 26.8241 153.162 26.508 153.789 25.873C154.415 25.239 154.728 24.4491 154.728 23.5021C154.728 22.5561 154.415 21.7701 153.789 21.1431C153.162 20.5171 152.376 20.2031 151.429 20.2031C150.482 20.2031 149.696 20.5171 149.069 21.1431C148.443 21.7701 148.13 22.5601 148.13 23.5141C148.13 24.4691 148.443 25.259 149.069 25.886Z" fill="#6C7074"/>
<path d="M42.672 0.0881348L25.892 25.5931L21.81 19.3921C21.797 19.3721 21.804 19.3481 21.825 19.3371L22.387 19.0501C24.4 18.0221 26.024 16.3281 26.855 14.2271C29.716 6.99011 24.425 0.0881348 17.553 0.0881348H0.357971L4.59802 6.52512H17.356C19.344 6.52512 20.957 8.13814 20.957 10.1271C20.957 12.1141 19.345 13.7271 17.356 13.7271H9.33502L25.894 38.8861L51.423 0.0891113H42.672V0.0881348Z" fill="#6C7074"/>
</svg>
